<svg xmlns="http://www.w3.org/2000/svg" xmlns:xlink="http://www.w3.org/1999/xlink"><symbol id="angle-down-circle" viewBox="0 0 32 32"><path d="M15.976 2.656c-7.366 0-13.337 5.97-13.337 13.337S8.609 29.33 15.976 29.33s13.337-5.97 13.337-13.337-5.97-13.337-13.337-13.337zm0 25.606c-6.765 0-12.27-5.504-12.27-12.27s5.505-12.27 12.27-12.27 12.27 5.505 12.27 12.27-5.505 12.27-12.27 12.27z"/><path d="M15.214 19.175l.754.754 6.035-6.035-.754-.754-5.281 5.281-5.256-5.256-.754.754 3.013 3.013z"/></symbol><symbol id="logo" viewBox="0 0 234.199 91.817"><g id="svgGroup" stroke-linecap="round" fill-rule="evenodd" font-size="12" stroke="#000" stroke-width=".25mm" fill="none"><path d="M80.918 1.699h.293a1.593 1.593 0 01.471.09q.792.255 2.283 1.231a35.341 35.341 0 01.82.554q2.005 1.395 2.519 2.66a2.265 2.265 0 01.177.856q0 1.997-11.452 27.522a2327.994 2327.994 0 01-3.548 7.869 6465.505 6465.505 0 01-3.55 7.821q-10.972 24.129-13.36 28.754a25.891 25.891 0 01-.288.544 461.998 461.998 0 01-.895 1.628q-1.134 2.052-1.776 3.15a38.127 38.127 0 01-.346.583 17.619 17.619 0 01-.764 1.143q-.432.599-.961 1.247a33.952 33.952 0 01-.502.598q-2.519 3.106-6.269 3.106a10.378 10.378 0 00-1.351.084q-.717.094-1.335.294a6.594 6.594 0 00-.01.003 32.929 32.929 0 01-.406.129q-.765.238-.977.251a.374.374 0 01-.023.001 6.041 6.041 0 01-.613-.029q-.613-.063-.929-.265a.663.663 0 01-.333-.585q0-.176.498-1.436a21.262 21.262 0 01.318-.72q1.53-3.364 9.983-21.212a16701.352 16701.352 0 013.088-6.515 3027.985 3027.985 0 00-11.409-.417q-5.193-.179-9.791-.316a1656.64 1656.64 0 00-2.999-.087A232.329 232.329 0 009.316 86.602q-.863 1.676-1.638 2.493a4.186 4.186 0 01-.237.231 2.941 2.941 0 01-1.231.651q-.446.118-.973.137a5.629 5.629 0 01-.198.003 3.535 3.535 0 01-1.327-.276q-.938-.379-1.954-1.276A5.765 5.765 0 01.687 87.33 4.351 4.351 0 010 84.961q0-5.859 15.117-25.078a230.772 230.772 0 00-2.476.012q-4.971.054-6.518.34a63.205 63.205 0 01-.666.119q-1.008.175-1.5.218a3.152 3.152 0 01-.266.014A1.309 1.309 0 012.44 59.8q-.331-.661-.331-1.88a4.533 4.533 0 011.048-2.866q.525-.666 1.315-1.277a11.003 11.003 0 01.772-.544 11.534 11.534 0 013.248-1.409q1.48-.402 3.24-.54a24.517 24.517 0 011.92-.073 9.699 9.699 0 00.241-.003q.429-.011 1.224-.055 3.633-.176 7.442-.293 12.773-15 26.718-27.832Q62.745 10.635 72.715 5.401a52.192 52.192 0 01.703-.362q1.641-.82 2.607-.791a1.742 1.742 0 01.659.166q.74.333 1.656 1.328a43.983 43.983 0 01.593-1.27q1.159-2.372 1.788-2.715a.417.417 0 01.197-.058zm-6.68 12.305A252.534 252.534 0 0035.156 50.86q10.371.234 20.977.878a6526.904 6526.904 0 017.545-15.825q2.955-6.176 5.595-11.653a3096.119 3096.119 0 014.965-10.256z" id="0" vector-effect="non-scaling-stroke"/><path d="M92.227 52.324l-2.461 3.692a94.835 94.835 0 015.853-6.119q6.501-6.167 11.965-8.366a15.383 15.383 0 015.736-1.218 6.581 6.581 0 011.872.254 5.197 5.197 0 012.083 1.181 4.762 4.762 0 011.544 3.369 6.445 6.445 0 01.009.352 5.286 5.286 0 01-.203 1.335q-.61 2.29-3.049 6.311-2.49 4.105-4.687 7.231a79.989 79.989 0 01-1.319 1.822q-1.102 1.411-2.419 1.76a3.461 3.461 0 01-.891.115 4.046 4.046 0 01-1.269-.189 3.257 3.257 0 01-1.602-1.158 5.023 5.023 0 01-1.021-2.911 6.266 6.266 0 01-.005-.254q0-3.886 4.008-8.748a33.138 33.138 0 01.328-.392l-.117-.117a2.895 2.895 0 00-1.021.371q-2.466 1.316-8.559 7.246a408.487 408.487 0 00-5.414 5.363q-4.243 4.286-7.594 7.967a148.214 148.214 0 00-4.865 5.64q-2.429 2.955-5.02 6.363a265.057 265.057 0 00-1.746 2.323q-1.737 2.41-2.965 2.515a1.301 1.301 0 01-.111.005 5.425 5.425 0 01-.867-.078q-.896-.146-2.078-.568a20.644 20.644 0 01-.395-.145 45.975 45.975 0 01-.722-.282q-1.086-.434-1.556-.703a1.936 1.936 0 01-.241-.158 1.066 1.066 0 01-.333-.478q-.067-.181-.092-.407a2.614 2.614 0 01-.015-.287 3.537 3.537 0 01.078-.71q.07-.344.206-.725a7.582 7.582 0 01.185-.469q.39-.902 1.327-2.431a53.227 53.227 0 01.402-.645q1.212-1.918 3.62-6.116a492.005 492.005 0 00.188-.33 387.288 387.288 0 011.452-2.512q2.445-4.197 6.488-10.964a3112.09 3112.09 0 001.869-3.133q3.719-6.242 4.576-7.766a95.921 95.921 0 011.062-1.801q1.131-1.869 2.005-3.078a19.442 19.442 0 01.566-.746q2.122-2.687 6.596-3.212a19.855 19.855 0 012.31-.127 1.591 1.591 0 01.615.109q.791.33.791 1.648a5.449 5.449 0 01-.277 1.551q-.913 2.981-4.82 8.82z" id="1" vector-effect="non-scaling-stroke"/><path d="M150.059 12.832l2.754-.351 2.402.586q.515 0 .918.502a2.106 2.106 0 01.019.025 2.498 2.498 0 01.223.336q.188.343.188.66a.903.903 0 01-.051.256q-.199.629-1.18 2.264-1.23 2.05-2.9 4.658-1.576 2.461-1.769 2.808a.914.914 0 00-.018.034q4.208-.324 6.156-.35a24.237 24.237 0 01.318-.002q1.904 0 2.608.264a1.939 1.939 0 01.435.239q.412.292.884.857a9.758 9.758 0 01.292.369 15.757 15.757 0 00.607.756q.299.349.58.626a6.584 6.584 0 00.483.434 1.97 1.97 0 01.678 1.096q.081.33.084.724a3.945 3.945 0 010 .026 1.957 1.957 0 01-.527 1.327q-.361.408-.968.753-1.494.849-3.193 1.025a3899.517 3899.517 0 01-3.208.317q-9.883.971-11.595 1.079a9.687 9.687 0 01-.197.01 169.052 169.052 0 00-2.609 4.14q-4.243 6.93-10.587 18.371a981.422 981.422 0 00-.075.136q-8.526 15.381-9.053 19.248-.232 1.739-.234 2.847a10.637 10.637 0 00-.001.024 3.122 3.122 0 00.124.918q.311 1.009 1.405 1.274a3.734 3.734 0 00.874.093 7.496 7.496 0 002.182-.347q.932-.283 1.929-.798a16.41 16.41 0 001.221-.701q2.93-1.845 5.39-4.013a411.414 411.414 0 011.546-1.374q5.076-4.486 5.486-4.486a.945.945 0 01.803.515q.554.871.682 3.214a28.448 28.448 0 01.038 1.545q0 2.871-2.637 5.156-5.786 4.985-9.78 7.56a42.039 42.039 0 01-.18.116 17.673 17.673 0 01-3.601 1.785 13.374 13.374 0 01-4.485.793 7.791 7.791 0 01-1.053-.069 6.547 6.547 0 01-.588-.107 17.43 17.43 0 01-2.778-.745q-2.622-.96-4.107-2.683-2.168-2.515-2.168-6.77a16.837 16.837 0 010-.114 19.166 19.166 0 01.369-3.473q.332-1.726.961-3.672a46.219 46.219 0 011.248-3.373q2.549-6.182 6.416-13.154a445.352 445.352 0 019.295-15.937 384.397 384.397 0 013.362-5.391l-2.227.293a589.204 589.204 0 01-2.349.259q-4.03.435-5.25.493a6.738 6.738 0 01-.311.009h-.527a8.292 8.292 0 01-3.282-.673 4.93 4.93 0 01-.635-.322q-.693-.423-.878-.948a1.191 1.191 0 01-.069-.4 2.481 2.481 0 01.308-1.178q.184-.347.48-.686a4.676 4.676 0 01.062-.07 11.321 11.321 0 00.383-.443q.335-.411.507-.723a1.82 1.82 0 00.135-.299 2.535 2.535 0 01.426-.77q.755-.976 2.65-2.101a24.747 24.747 0 011.246-.695q1.191-.617 2.04-.845a3.774 3.774 0 01.728-.13 141.99 141.99 0 012.291-.131 127.92 127.92 0 01.317-.015 276.56 276.56 0 011.333-.059 377.967 377.967 0 011.479-.058 145.597 145.597 0 00.731-.03q.706-.03 1.217-.06a34.814 34.814 0 00.425-.028l5.274-.234a340.152 340.152 0 012.006-2.978q3.319-4.866 4.761-6.514a155.187 155.187 0 01.437-.498q1.156-1.31 1.552-1.687a1.475 1.475 0 01.15-.13.772.772 0 01.197-.094q.329-.111.975-.111z" id="2" vector-effect="non-scaling-stroke"/><path d="M139.336 82.852l.469-1.875a3.587 3.587 0 01.522-1.526q1.773-3.316 9.568-11.559a320.173 320.173 0 013.591-3.732 701.979 701.979 0 0125.334-24.619 778.782 778.782 0 013.846-3.535q14.919-13.622 22.318-19.506a121.608 121.608 0 01.563-.445q-5.098 1.465-12.832 2.607a107.765 107.765 0 01-9.325.982 88.472 88.472 0 01-5.265.161 59.377 59.377 0 01-5.596-.24q-9.552-.91-11.179-5.267a5.485 5.485 0 01-.334-1.935 7.653 7.653 0 011.377-4.453 10.224 10.224 0 011.885-2.079 8.956 8.956 0 011.425-.968 36.506 36.506 0 011.695-.897q2.48-1.223 3.799-1.269a2.908 2.908 0 01.102-.001 5.921 5.921 0 01.565.024q1.163.112 1.163.737 0 .352-.966 1.055-.967.703-.967 1.113a1.289 1.289 0 00.832 1.058q2.315 1.273 11.076 1.437a146.337 146.337 0 002.74.025 188.107 188.107 0 005.731-.095q5.157-.158 11.584-.579a271.592 271.592 0 003.57-.256q6.996-.551 8.792-1.159a3.917 3.917 0 00.06-.021 15.69 15.69 0 002.042-.886 12.02 12.02 0 001.62-1.018q1.523-1.143 2.226-1.963a6.085 6.085 0 014.428-2.155A8.044 8.044 0 01226.26 0a13.794 13.794 0 013.387.403 11.832 11.832 0 012.091.74 6.375 6.375 0 011.077.622q.573.419.909.916a2.739 2.739 0 01.475 1.567 5.084 5.084 0 01-.445 2.032q-.305.705-.819 1.42a10.366 10.366 0 01-.435.562 20.479 20.479 0 01-1.967 2.075 16.345 16.345 0 01-1.607 1.294 61.46 61.46 0 01-2.493 1.659 75.365 75.365 0 01-1.638 1.007q-2.009 1.2-2.508 1.564a2.011 2.011 0 00-.099.077q-.332.276-2.647 2.275a2662.849 2662.849 0 00-.283.244 311.082 311.082 0 00-6.334 5.464q-9.567 8.452-24.87 22.917a2211.012 2211.012 0 00-3.689 3.494 8914.338 8914.338 0 00-8.28 7.872q-16.527 15.734-20.812 20.019a120.845 120.845 0 014.452-.916q5.363-1.007 12.775-2.014a168.85 168.85 0 0110.393-1.098 131.851 131.851 0 019.617-.367 70.121 70.121 0 015.102.173q5.596.41 9.078 1.79 4.951 1.963 4.951 6.768a11.23 11.23 0 01-.442 3.062 14.194 14.194 0 01-.584 1.655 16.517 16.517 0 01-.372.824q-.549 1.124-.994 1.462a.609.609 0 01-.362.145q-.235 0-.469-.732a5.508 5.508 0 00-.103-.294q-.183-.477-.366-.614a7.996 7.996 0 00-1.957-.899q-2.855-.918-7.916-.918a117.592 117.592 0 00-4.167.086q-7.163.258-19.798 1.291-16.845 1.377-20.976 1.846a187.511 187.511 0 01-1.671.183q-2.099.219-3.182.27a12.236 12.236 0 01-.567.016 8.727 8.727 0 01-2.972-.488 7.625 7.625 0 01-3.063-2.061 14.06 14.06 0 01-1.08-1.315q-1.071-1.495-1.235-2.773a3.574 3.574 0 01-.029-.453z" id="3" vector-effect="non-scaling-stroke"/></g></symbol><symbol id="zoom" viewBox="0 0 512 512"><path d="M289.8 200.2h-49.3v-49.3c0-11.3-9.1-20.4-20.4-20.4-11.3 0-20.4 9.1-20.4 20.4v49.3h-49.3c-11.3 0-20.4 9.1-20.4 20.4 0 11.3 9.1 20.4 20.4 20.4h49.3v49.3c0 11.3 9.1 20.4 20.4 20.4 11.3 0 20.4-9.1 20.4-20.4V241h49.3c11.3 0 20.4-9.1 20.4-20.4 0-11.3-9.2-20.4-20.4-20.4z"/><path d="M220.2 388.7C127.3 388.7 52 313.5 52 220.6S127.3 52.5 220.2 52.5s168.1 75.3 168.1 168.1S313 388.7 220.2 388.7zm274.8 78L381.7 353.4c29.7-36.1 47.6-82.4 47.6-132.8 0-115.5-93.6-209.2-209.2-209.2S11 105.1 11 220.6s93.6 209.2 209.2 209.2c50.4 0 96.6-17.8 132.7-47.5l113.3 113.3c5.2 5.3 21.1 7.9 28.9 0 7.9-8 7.9-20.9-.1-28.9z"/></symbol><symbol id="tg" viewBox="0 0 32 32"><path d="M26.49 29.86H5.5a3.37 3.37 0 01-2.47-1 3.35 3.35 0 01-1-2.47V5.48A3.36 3.36 0 013 3a3.37 3.37 0 012.5-1h21A3.38 3.38 0 0129 3a3.36 3.36 0 011 2.46v20.91a3.35 3.35 0 01-1 2.47 3.38 3.38 0 01-2.51 1.02zm-5.38-6.71a.79.79 0 00.85-.66l2.77-13.25a.55.55 0 00-.18-.46.62.62 0 00-.41-.17q-.08 0-16.53 6.11a.59.59 0 00-.41.59.57.57 0 00.43.52l4 1.24 1.61 4.83a.62.62 0 00.63.43.56.56 0 00.4-.17L16.54 20l4.09 3a.9.9 0 00.48.15zm-7.31-2.44l-1.21-4q8.72-5.55 8.78-5.55c.15 0 .23 0 .23.16a.18.18 0 010 .06s-2.51 2.3-7.52 6.8z"/></symbol><symbol id="viber" viewBox="0 0 32 32"><path d="M26.49 30H5.5A3.35 3.35 0 013 29a3.35 3.35 0 01-1-2.48V5.5A3.35 3.35 0 013 3a3.35 3.35 0 012.5-1h21A3.35 3.35 0 0129 3a3.35 3.35 0 011 2.5v21a3.52 3.52 0 01-3.51 3.5zm-5.56-5.67a3.22 3.22 0 002-.73 3.1 3.1 0 001.45-2.33 2 2 0 00-1.05-1.51 17.19 17.19 0 00-1.94-1.29 2.24 2.24 0 00-1.44-.61h-.44q-.4 0-1 1a1.16 1.16 0 01-1 .54 1.94 1.94 0 01-.76-.18 7.5 7.5 0 01-4.11-4 2 2 0 01-.26-.93 4 4 0 01.05-.45c0-.22.25-.45.68-.71a2.9 2.9 0 00.66-.59 1.34 1.34 0 00.27-.9 4.38 4.38 0 00-.64-1.37c-1.24-1.9-2.24-2.85-3-2.85a1.62 1.62 0 00-.56.1C8.26 8.07 7.49 9 7.49 10.36a3.82 3.82 0 00.28 1.38A22.2 22.2 0 0020.13 24.1a1.47 1.47 0 00.8.23zM23.74 16q.38 0 .42-.24a.71.71 0 000-.26 2.06 2.06 0 000-.21 1.23 1.23 0 010-.29 7.25 7.25 0 00-1-3.74 8.24 8.24 0 00-2.69-2.82 7.42 7.42 0 00-3.76-1.22h-.51c-.29 0-.43.17-.43.5a.31.31 0 00.15.31.9.9 0 00.34.09.71.71 0 01.31.07 8 8 0 014.77 2.09 8.32 8.32 0 012 4.81l-.05.35a2.08 2.08 0 00.05.39c.05.07.17.17.4.17zm-2-.8a.49.49 0 00.34-.53v-.18a.59.59 0 010-.17 4.72 4.72 0 00-1.3-3.32 5.75 5.75 0 00-3.32-1.78 2.17 2.17 0 00-.55-.07h-.27c-.13 0-.21.21-.24.55s.22.38.66.38a5.71 5.71 0 013 1.37 5.12 5.12 0 011.19 2.81v.3a1.07 1.07 0 00.07.39c.03.16.18.22.45.22zm-2-.66c.21 0 .34-.11.37-.25a1.65 1.65 0 00.06-.43 2.47 2.47 0 00-.8-1.72 2.35 2.35 0 00-1.7-.82h-.37a.41.41 0 00-.33.46c0 .22.17.36.5.43a1.82 1.82 0 011.74 1.88.51.51 0 00.53.42z"/></symbol><symbol id="wa" viewBox="0 0 32 32"><path d="M29 3a3.35 3.35 0 00-2.48-1H5.5A3.35 3.35 0 003 3a3.35 3.35 0 00-1 2.5v21A3.35 3.35 0 003 29a3.35 3.35 0 002.5 1h21a3.52 3.52 0 003.5-3.51V5.5A3.35 3.35 0 0029 3z"/><path d="M27.75 16.06a11.13 11.13 0 01-5.57 8.86 11.69 11.69 0 01-5.65 1.61h-.33a12.55 12.55 0 01-5.54-1.4l-3.16.95c-1.31.41-2.35.75-3.13 1 0 0-.07 0-.08-.11l-.09.15s.62-1.8 1.86-5.3a2 2 0 00.12-.69 1.63 1.63 0 00-.18-.62 11.44 11.44 0 01-1.3-5.26A10.92 10.92 0 018 7.62a11.64 11.64 0 017.53-3.42h1.41a11.56 11.56 0 017.42 3.25 11.16 11.16 0 013.39 7.22zM25.55 18a10.43 10.43 0 00.45-2.8 8.63 8.63 0 00-2.38-5.87A9.25 9.25 0 0016.2 6h-.75a9.23 9.23 0 00-4.84 1.71 8.86 8.86 0 00-4.08 7.49 6.89 6.89 0 00.09 1.1 8.89 8.89 0 001.15 3.6c.4.67.61 1 .62 1l-.39.88c-.52 1.53-.8 2.38-.86 2.55l3.7-1.16a10.28 10.28 0 004.22 1.52 9.59 9.59 0 001.06.07 9.71 9.71 0 003.95-.76 9.39 9.39 0 005.48-6zM22 17.94a1.58 1.58 0 010 .32 2.11 2.11 0 01-1.3 2 3.48 3.48 0 01-1.49.35H19a12.55 12.55 0 01-3-1A10.84 10.84 0 0112 16a5.89 5.89 0 01-1.36-3.17c0-1.46.49-2.32 1.47-2.57a3.08 3.08 0 01.61-.07 1.49 1.49 0 01.54.11 5.47 5.47 0 01.68 1.27 11.62 11.62 0 01.54 1.43 1.29 1.29 0 01-.41.77 8.23 8.23 0 00-.52.68 3.59 3.59 0 00.76 1.22 7.27 7.27 0 002.06 1.8 3.83 3.83 0 001.37.57c.12 0 .38-.25.75-.72s.61-.7.71-.7a5.63 5.63 0 011.49.6 7.14 7.14 0 011.31.72z" fill="#fff"/></symbol></svg>